PathFileType	4	(X/Y/Z)	D:\TRACE\v60_Jaco2_6-2-23\JustArmDRS_Motion3_3-v60.trc
DataRate	CameraRate	NumFrames	NumMarkers	Units	OrigDataRate	OrigDataStartFrame	OrigNumFrames
100.00	100.00	      17	9	mm	100.00	2626	      7000
Frame#	Time	front left toe			Front right toe			aft left toe			aft right toe			Arm			FL body			FR body			AL Body			AR Body			
		X1	Y1	Z1	X2	Y2	Z2	X3	Y3	Z3	X4	Y4	Z4	X5	Y5	Z5	X6	Y6	Z6	X7	Y7	Z7	X8	Y8	Z8	X9	Y9	Z9	

2626	26.250	-188.25897	39.99518	-222.81868	210.69594	34.07040	-158.46973	-277.60870	-10.83581	412.90820	132.19478	-14.47370	427.41782	14.63793	1169.53772	-595.60260	-48.97002	614.64703	-325.66797	107.78594	615.72943	-304.88599	-162.75984	534.15118	608.68829	-11.98127	526.21649	627.06976	
2627	26.260	-188.27290	39.79704	-222.98592	210.67990	34.02621	-158.46494	-277.54553	-10.54908	412.81888	132.12186	-14.33622	427.44055	14.37578	1169.13757	-596.08917	-49.15472	614.35303	-325.81384	107.71692	615.42450	-304.98538	-162.73602	534.17938	608.61829	-12.12914	526.34259	626.93146	
2628	26.270	-188.28448	39.64174	-223.12965	210.72067	33.84409	-158.46326	-277.52582	-10.30476	412.73163	131.99799	-14.28721	427.36584	14.13321	1168.87903	-596.45569	-49.27864	614.12842	-325.92270	108.15619	615.06763	-305.18704	-162.75891	534.18286	608.57751	-12.22577	526.41492	626.86646	
2629	26.280	-188.37749	39.39723	-223.30986	210.73247	33.58226	-158.54480	-277.51266	-10.12685	412.53470	131.89714	-14.10845	427.19333	13.96981	1168.49585	-596.80560	-49.39519	613.98181	-326.10678	107.55808	614.86658	-305.14374	-162.81804	534.24915	608.51501	-12.28325	526.52002	626.74561	
2630	26.290	-188.37250	39.15500	-223.43732	210.71751	33.27167	-158.66757	-277.63147	-9.79659	412.45367	131.88612	-13.72703	426.99429	13.62078	1168.02759	-597.18884	-49.51025	613.39624	-326.08127	107.39843	614.65674	-305.26617	-162.93407	534.35187	608.42542	-12.34135	526.70782	626.63330	
2631	26.300	-188.38762	39.02307	-223.52988	210.71094	33.09018	-158.83781	-277.79285	-9.44362	412.36783	132.03458	-13.26134	426.96075	13.41192	1167.60559	-597.47174	-49.76719	613.28705	-326.34961	107.33157	614.36365	-305.42130	-163.08662	534.53864	608.26727	-12.34298	526.88287	626.50598	
2632	26.310	-188.42989	38.85782	-223.65828	210.49785	32.77551	-159.17630	-277.09741	-9.37390	412.29370	132.11070	-12.63136	427.03809	13.08957	1167.38708	-597.85754	-50.00319	612.93939	-326.47330	107.21883	614.08685	-305.65118	-163.24655	534.76544	608.14325	-12.38465	527.06659	626.43335	
2633	26.320	-188.47577	38.63789	-223.83992	210.45050	32.58575	-159.30254	-277.64050	-8.91498	412.41418	132.34172	-12.22473	427.06042	12.98089	1166.98071	-598.41382	-50.21751	612.68158	-326.58957	107.14170	613.95020	-305.79514	-163.33450	534.94958	607.99078	-12.46507	527.28021	626.37256	
2634	26.330	-188.46884	38.29099	-224.00328	210.36348	32.32716	-159.63092	-277.64957	-8.49559	412.27774	132.40166	-11.93583	427.12573	12.98606	1166.46362	-598.99298	-50.22727	612.52039	-326.73511	107.09668	613.82397	-305.89642	-163.40750	535.20349	607.86633	-12.54671	527.54730	626.27045	
2635	26.340	-188.38507	38.05489	-224.08626	210.35220	32.17777	-159.87929	-277.60300	-8.10946	412.15118	132.31230	-11.87116	426.91745	13.15287	1165.94153	-599.36548	-50.13536	612.19440	-326.95239	107.11369	613.54175	-305.98743	-163.46388	535.38361	607.77899	-12.63148	527.76752	626.10345	
2636	26.350	-188.20853	37.74733	-224.18439	210.34338	32.11439	-159.98073	-277.60074	-7.70735	411.92743	132.15053	-11.74816	426.69571	12.80920	1165.56750	-599.76605	-50.16680	612.03339	-327.10782	107.07039	613.14606	-306.09180	-163.52153	535.60486	607.62561	-12.75824	527.97833	625.89984	
2637	26.360	-187.94301	37.46220	-224.32248	210.40179	31.92415	-160.15710	-277.48544	-7.23377	411.83331	132.11179	-11.08725	426.51474	12.68818	1165.19043	-600.16815	-50.23898	611.75500	-327.26862	107.06167	612.89301	-306.50211	-163.49184	535.74347	607.42810	-12.80791	528.18994	625.70819	
2638	26.370	-187.60854	37.16658	-224.46046	210.49886	31.82273	-160.25206	-277.19876	-7.06852	411.88864	132.37975	-10.46295	426.42871	12.78141	1164.86963	-600.68994	-50.29000	611.47546	-327.45502	106.95866	612.63770	-306.83765	-163.38501	535.84564	607.34058	-12.73245	528.36926	625.59943	
2639	26.380	-187.36081	36.86589	-224.65274	210.92595	31.78414	-160.28285	-277.01047	-6.95327	411.65054	132.82411	-9.93906	426.32541	12.61265	1164.59619	-601.19098	-50.11276	610.93579	-327.52783	106.93707	612.35785	-307.02011	-163.35902	536.11865	607.22473	-12.69821	528.51404	625.52429	
2640	26.390	-187.11180	36.45803	-224.79445	211.27788	31.53586	-160.43205	-276.74261	-6.58566	411.55447	133.12158	-9.66934	426.33145	12.64916	1164.15906	-601.70270	-50.15804	610.54175	-327.89917	106.83414	612.09937	-307.26620	-163.27019	536.49078	607.05676	-12.43251	528.71826	625.37122	
2641	26.400	-187.09500	36.38647	-225.04330	211.53448	31.32659	-160.54872	-276.74631	-5.85944	411.39178	133.48271	-9.40243	426.35403	12.83276	1163.64514	-602.05377	-50.07725	610.32867	-328.01736	106.93781	611.87695	-307.40518	-163.42595	536.79236	606.88696	-12.26753	529.06213	624.97260	
2642	26.410	-187.06407	36.20757	-225.20403	211.78534	31.01101	-160.74452	-276.41330	-5.42890	411.53531	133.78285	-9.05523	426.12354	13.09392	1162.95618	-602.87537	-50.12016	610.10657	-328.20749	107.11943	611.50208	-307.42981	-163.39778	537.19263	606.63110	-12.58812	529.64117	625.07312	
